<svg xmlns="http://www.w3.org/2000/svg" width="1200" height="360" viewBox="0 0 1200 360" role="img" aria-labelledby="title desc">
  <title id="title">Nimesh Johari — Production Field Notes</title>
  <desc id="desc">An editorial profile cover with Nimesh Johari's name and four tiled panels showing his engineering loop: trace, make, test, learn.</desc>

  <rect width="1200" height="360" rx="6" fill="#f4ecdd"/>
  <rect width="18" height="360" fill="#b3482d"/>
  <path d="M18 314H742" stroke="#d7c9b4" stroke-width="2"/>
  <path d="M742 0V360" stroke="#d7c9b4" stroke-width="2"/>

  <g font-family="Arial, Helvetica, sans-serif">
    <text x="58" y="54" fill="#b3482d" font-size="14" font-weight="700" letter-spacing="3">PRODUCTION FIELD NOTES · ISSUE 02</text>
    <text x="56" y="138" fill="#1f2a2e" font-family="Georgia, 'Times New Roman', serif" font-size="72" font-weight="700">NIMESH</text>
    <text x="56" y="210" fill="#1f2a2e" font-family="Georgia, 'Times New Roman', serif" font-size="72" font-weight="700">JOHARI</text>
    <rect x="58" y="235" width="82" height="6" fill="#216e67"/>
    <text x="58" y="275" fill="#216e67" font-size="19" font-weight="700" letter-spacing="1.4">BACKEND ENGINEER · AI POD TECH LEAD</text>
    <text x="58" y="339" fill="#685f52" font-size="15">make complicated systems boring enough to trust</text>
  </g>

  <g transform="translate(772 28)" font-family="Arial, Helvetica, sans-serif">
    <rect width="398" height="304" rx="4" fill="#1f2a2e"/>
    <text x="24" y="35" fill="#f4ecdd" font-size="13" font-weight="700" letter-spacing="2.5">HOW I WORK</text>
    <circle cx="345" cy="30" r="5" fill="#b3482d"/>
    <circle cx="363" cy="30" r="5" fill="#e7b44d"/>

    <g transform="translate(24 58)">
      <rect width="164" height="92" fill="#216e67"/>
      <text x="16" y="27" fill="#eaf4f1" font-size="12" font-weight="700" letter-spacing="1.7">01 / TRACE</text>
      <path d="M18 63H59L72 48H106L120 37H144" fill="none" stroke="#f4ecdd" stroke-width="3"/>
      <circle cx="18" cy="63" r="4" fill="#f4ecdd"/>
      <circle cx="144" cy="37" r="4" fill="#e7b44d"/>
    </g>

    <g transform="translate(210 58)">
      <rect width="164" height="92" fill="#b3482d"/>
      <text x="16" y="27" fill="#fff3e8" font-size="12" font-weight="700" letter-spacing="1.7">02 / MAKE</text>
      <rect x="18" y="48" width="53" height="25" fill="#fff3e8"/>
      <rect x="78" y="48" width="68" height="25" fill="none" stroke="#fff3e8" stroke-width="2"/>
      <path d="M71 60H78" stroke="#fff3e8" stroke-width="3"/>
    </g>

    <g transform="translate(24 172)">
      <rect width="164" height="92" fill="#e7b44d"/>
      <text x="16" y="27" fill="#1f2a2e" font-size="12" font-weight="700" letter-spacing="1.7">03 / TEST</text>
      <path d="M20 61L42 72L70 43" fill="none" stroke="#1f2a2e" stroke-width="5"/>
      <path d="M84 48H145M84 64H132" stroke="#1f2a2e" stroke-width="3" opacity="0.72"/>
    </g>

    <g transform="translate(210 172)">
      <rect width="164" height="92" fill="#f4ecdd"/>
      <text x="16" y="27" fill="#1f2a2e" font-size="12" font-weight="700" letter-spacing="1.7">04 / LEARN</text>
      <circle cx="49" cy="59" r="17" fill="none" stroke="#216e67" stroke-width="4"/>
      <path d="M66 59H145" stroke="#216e67" stroke-width="4"/>
      <path d="M126 45L145 59L126 73" fill="none" stroke="#216e67" stroke-width="4"/>
    </g>
  </g>
</svg>
